<?xml version="1.0" encoding="iso-8859-1"?>
<!-- Generator: Adobe Illustrator 19.0.0, SVG Export Plug-In . SVG Version: 6.00 Build 0)  -->
<svg version="1.1" id="Layer_1" xmlns="http://www.w3.org/2000/svg" xmlns:xlink="http://www.w3.org/1999/xlink" x="0px" y="0px"
	 viewBox="0 0 512 512" style="enable-background:new 0 0 512 512;" xml:space="preserve">
<circle style="fill:#E1EFFA;" cx="256" cy="256" r="256"/>
<path style="fill:#BCD4E8;" d="M370.65,172.982l-31.631-31.634l-25.237-14.554l-16.886,14.746l-26.335-26.34h-29.117l-7.314,21.358
	c-6.51,1.208-12.838,2.89-18.944,5.084l-16.963-14.848l-25.239,14.554l4.39,22.164c-2.491,2.122-4.9,4.355-7.206,6.659
	c-2.301,2.304-4.534,4.713-6.689,7.201l-22.131-4.39l-14.554,25.239l14.848,16.968c-2.194,6.103-3.876,12.434-5.084,18.941
	l-21.358,7.316v29.112l26.34,26.335l-14.746,16.888l14.554,25.236l167.491,167.493c98.975-20.774,176.896-98.693,197.67-197.67
	L370.65,172.982z"/>
<path style="fill:#34495E;" d="M396.8,270.546v-29.105l-21.373-7.299v0.036c-1.185-6.531-2.89-12.867-5.069-18.977l14.848-16.988
	l-14.561-25.231l-22.134,4.385l0.056,0.12c-2.143-2.537-4.403-4.969-6.728-7.319c-2.36-2.345-4.805-4.593-7.332-6.74l0.133,0.069
	l4.365-22.152l-25.216-14.566l-16.998,14.861c-6.118-2.184-12.444-3.881-18.962-5.076h0.023l-7.286-21.358h-29.138l-7.281,21.358
	h0.02c-6.52,1.198-12.859,2.893-18.972,5.076L198.2,126.779l-25.213,14.566l4.375,22.152l0.125-0.069
	c-2.542,2.148-4.987,4.396-7.324,6.74c-2.353,2.35-4.6,4.782-6.751,7.319l0.077-0.12L141.335,173l-14.561,25.221l14.856,16.98
	c-2.173,6.111-3.881,12.436-5.066,18.962v-0.02l-21.363,7.299v29.12l21.366,7.293v-0.02c1.185,6.525,2.893,12.854,5.066,18.947
	l-14.856,17.009l14.569,25.224l22.144-4.375l-0.077-0.12c2.156,2.532,4.403,4.966,6.751,7.322c2.34,2.335,4.782,4.588,7.311,6.725
	l-4.488,22.072l25.234,14.579l16.975-14.858c6.113,2.184,12.436,3.884,18.954,5.066h-0.003l7.281,21.366h29.138l7.291-21.366h-0.013
	c6.525-1.185,12.846-2.885,18.962-5.071l16.983,14.863l25.224-14.579l-4.372-22.134l-0.133,0.061
	c2.527-2.138,4.979-4.39,7.332-6.725c2.324-2.355,4.585-4.79,6.728-7.322l-0.056,0.113l22.134,4.378l14.569-25.219l-14.856-17.009
	c2.181-6.093,3.886-12.424,5.069-18.947v0.02L396.8,270.546z M255.997,361.879c-58.47,0-105.876-47.406-105.876-105.879
	s47.406-105.874,105.876-105.874S361.879,197.524,361.879,256S314.468,361.879,255.997,361.879z"/>
<path style="fill:#0684BA;" d="M353.556,255.992c0,53.868-43.676,97.551-97.572,97.551c-53.875,0-97.539-43.684-97.539-97.551
	c0-53.885,43.663-97.551,97.539-97.551C309.883,158.441,353.556,202.107,353.556,255.992z"/>
<path style="fill:#FFFFFF;" d="M233.162,337.546c0.399,0.074,1.446-0.289,1.748-0.374c-0.724-0.586-2.296-0.645-3.213-1.203
	c0.069,0.028-2.939-1.795-2.294-0.292c0.161,0.366,0.73,0.036,0.986,0.21c-0.356,0.555-0.517,0.379-0.123,0.625
	c0-0.013-3.343-1.815,0.018-1.93c-2.33-2.086,0.143-1.441-0.586-2.755c-0.507-0.904,1.966-1.766,0.63-2.537
	c-0.622-0.363-1.329-0.297-1.974-0.755c-0.924-0.66-0.054-1.841,0.812-1.72c0.079,0,0.532-2.099,0.689-2.437
	c-0.243-0.11-1.966-2.237-1.551-2.698c0.504-0.532,2.752,1.39,3.308-0.028c0.212-0.517-0.783-1.889-0.707-2.463
	c1.021-0.095,7.672,0.159,6.543-2.9c-0.394-1.057-3.2-2.644-2.9-3.515c0.97,0.146,2.58,1.551,3.63,0.996
	c0.852-0.443,1.531,0.494,2.429-0.509c0.156-0.182,1.641-1.761,1.211-2.066c-0.453-0.008-0.699,0.251-0.74,0.781
	c-0.527-0.712,0.381-1.216,0.863-1.736c0.113,0.159,0.22,0.315,0.343,0.456c0.548-0.835,3.63-4.846,3.73-4.933
	c1.569-1.83,0.276-4.288,1.833-5.755c1.426-1.336,2.977-2.22,4.754-2.923c0.548-0.225,2.501-1.265,2.908-1.137
	c3.267,1.006,2.872-2.9,4.951-4.662c2.107-1.761,0.55-10.796,2.276-11.471c0.942-0.364,3.72-3.786,5.148-5.348
	c1.405-1.498,1.58-3.441,1.039-5.35c-0.827-2.926-1.656-1.262-3.773-2.524c-1.692-1.014-2.982-3.026-5.082-3.315
	c-1.229-0.166-2.509,0.205-3.73-0.161c-0.52-0.161-1.917-1.006-2.447-0.294c0.095-0.113-1.126,0.456-1.044,0.484
	c-0.141-0.077-0.02-1.595-0.422-1.974c-0.63-0.599-2.824-1.219-3.594-1.418c-1.825-0.471-2.268,1.684-2.747-0.886
	c-1.495-0.407-2.985-2.15-2.724-2.586c0.143-0.182-2.335-5.394-2.675-4.908c-0.02-1.748-5.458-3.919-6.833-3.092
	c-1.242,0.901-3.512-0.806-4.28-1.628c-0.868-0.927-0.832-1.917-2.276-2.522c-0.617-0.261-1.667-0.131-1.441-1.183
	c0.253-1.121-2.662-1.336-2.936-2.435c0.415,0.077,0.758-0.125,1.137-0.236c-1.124,0.397-2.506-0.428-3.625,0.489
	c-1.623,1.352-2.598-0.64-4.385-0.289c-2.258,0.433-0.742-0.397-2.168-1.267c0.589,0.369-2.637-1.475-1.882-1.408
	c-0.681-0.082,0.084,1.108-0.653,1.377c-1.188,0.435-2.199,0.699-1.441,2.122c1.3,2.583-2.708,1.37-0.822-0.394
	c0.343-0.302,0.435-3.674,0.806-3.551c-0.474-0.159-4.134,2.217-4.552,2.714c-1.172-1.876-3.146,4.664-3.814,4.705
	c-0.343-1.608-1.874-2.255-3.192-2.739c-1.149-0.435-2.294,2.284-3.766,0.786c-2.644-2.668-1.49-6.973-0.151-10.015
	c0.576-1.411-4.856-1.848-5.527-1.272c-1.329,1.08,0.205-2.235,0.197-2.138c0.156-1.344,0.456-2.23,1.047-2.209
	c0.348-0.791,2.368-4.411,2.163-4.846c-0.814-1.902-4.25,1.469-4.572,2.312c-0.338,0.829-0.998,1.285-1.313,2.035
	c-0.33,0.748-0.955-0.169-1.513,0.138c-1.472,0.835-3.584,0.399-3.261-1.746c0.33-2.593-0.653-7.698,2.258-9.475
	c0.886-0.548,1.024-3.126,2.048-4.035c0.125-0.108,3.064-1.807,2.772-2.153c0.435,0.458,2.737-0.463,3.041,0.141
	c0.218,0.486,1.572,1.011,2.066,0.73c-0.033,0.056,0.225-1.144,0.225-1.16c-0.044-0.013-0.945-0.131-0.901-0.422
	c0.092-0.399,2.844-0.125,2.944-0.12c1.29,0.092,2.271,1.172,3.238,0.527c1.495-1.027,0.584,5.681,1.175,6.285
	c0.325,0.366,0.097,1.172,0.727,1.111c0.858-0.092,1.124-8.701,3.351-10.493c1.615-1.306,3.379-2.478,5.174-3.453
	c0.581-0.292,2.061-1.009,2.368-1.569c-0.067-0.266-0.346-0.612-0.643-0.32c-0.092-0.522,0.796-0.2,0.96-0.748
	c0.164-0.563-0.463-0.737-0.387-0.934c-0.028,0.051,0.55-1.121,0.358-0.968c0.013,0.036,0.028,0.087,0.036,0.125
	c0.906,0.141-0.2-0.842-0.238-0.983c1.17,0.604,0.689-1.285,1.825-1.385c-0.819,0.343-0.668,1.265-0.55,1.825
	c0.23,1.221,1.324-1.708,1.193-1.587c1.088-0.456,2.798-1.37,3.96-2.199c-0.264-0.108-0.558,0.108-0.888-0.133
	c1.201-0.435,2.542-0.289,3.709-0.886c-0.064-1.216,0.666-2.486,2.022-2.711c2.084-0.34,4.524-1.613,6.602-2.324
	c-0.317,0.724,0.179,0.177,0.748,0.443c-0.678-1.761-4.378,3.267-2.614,2.24c1.482-0.855,6.482-1.636,7.171-3.082
	c-0.013-0.077-0.338-1.039-0.33-1.039c-1.229,0-1.334,1.528-2.852,1.518c-2.765-0.028-1.098-1.728-1.672-2.491
	c-0.484,0.123-0.906-0.02-1.244-0.399c0.282-0.056,3.686-0.842,1.889-1.254c-2.929-0.622-4.859,2.627-7.27,2.55
	c1.795-1.093,4.232-3.43,6.413-3.722c2.324-0.317,5.535,0.822,7.585-0.62c1.797-1.265,3.049-0.333,4.081-2.381
	c0.32-0.563-1.321-1.257-1.748-1.362c0.184-0.205,0.556,0,0.676-0.34c-2.721-1.219-3.302-2.435-3.617-5.586
	c-1.398,1.011-6.075,3.182-3.574-0.346c-0.896-0.389-3.73-2.752-4.818-1.116c-0.504,0.727-1.298,1.953-2.127,2.332
	c-1.861,0.845-0.212,0.686-0.829,1.925c-1.057,2.051-3.581,1.761-4.79,3.553c-0.745,1.129-0.983,1.923-2.163,2.452
	c-1.024,0.456-1.418-0.765-0.911-1.72c0.366,0.399,0.694,0.463,0.998,0.164c0.077-0.438-0.556-0.225-0.748-0.399
	c0.361-0.637,0.806-1.211,1.324-1.746c-0.177-0.1-2.793-0.515-2.698-1.206c0.169-1.423-1.628-0.643-1.946-1.07
	c1.398-1.761,1.405-2.591,4.145-3.963c0.945-0.476,6.216-3.164,7.191-2.493c-0.131,0.604-0.781,0.481-1.132,0.794
	c0.758,0.192,2.957,0.428,3.717-0.095c-0.169-0.133-1.055-1.608-0.596-1.948c-0.069,0.067,1.51,0.031,1.631-0.008
	c0.85-0.207,1.777-0.305,2.26-1.17c0.422-0.758,3.205-1.743,3.863-1.37c3.63,2.061-4.938,4.257-5.015,4.017
	c0.172,0.596,2.486-0.415,3.054,1.172c0.146,0.387,2.78,1.236,3.041,0.868c0.148-0.182-0.75-1.147-0.794-1.38
	c2.76,1.334,2.611,0.645,2.145-1.201c-0.425-1.766,1.618,0.113,1.738,0.169c0.453,0.238,2.332-0.835,2.604-1.221
	c-0.671-0.52-1.843-0.507-2.419-1.139c-0.561-0.54,1.441-0.673,0.745-1.252c-0.829-0.694-2.166-0.517-1.708-1.859
	c-0.463-0.133-0.934-0.077-1.357,0.177c0.12,0.253,0.397,0.061,0.499,0.197c-0.445,0.282-0.965,0.323-1.485,0.31
	c0.164-0.23,0.63-0.23,0.635-0.689c-1.426-0.169-2.184,0.689-3.42,1.068c0.343-0.509,0.942-0.671,1.377-1.055
	c-1.364,0.177-2.662,0.681-3.73,1.567c0.161,0.161,0.317,0.317,0.428,0.502c-1.044,0.924-2.437,1.203-3.661,1.766
	c0.212-0.822,1.088-0.62,1.385-1.236c-0.448,0.008-0.886,0.113-1.285,0.302c0.512-0.061,2.058-1.6,2.409-1.994
	c-2.227-0.253-3.151,2.616-5.245,2.209c0.435-0.509,1.313-0.251,1.615-1.047c-0.773,0.095-3.712,2.089-4.193,1.047
	c-0.028-0.064,5.373-2.209,5.934-2.985c-0.366-0.038-0.765,0.333-1.103-0.102c0.266-0.3,0.704-0.315,1.004-0.64
	c-1.759-0.02-7.037,2.122-6.63,3.364c-0.681,0.548-1.418,0.696-2.248,0.351c0.323-0.512,1.475-0.527,0.54-1.26
	c-1.702,0.63-3.354,1.316-5.015,2.043c-3.786,1.69-7.514,3.671-11.046,5.855c-5.844,3.615-10.668,7.88-15.483,12.718
	c-2.56,2.591-12.306,13.97-12.28,16.351c0.036,1.748-0.998,3.302-1.651,4.874c-0.538,1.295-0.586,3.098-1.236,4.291
	c-1.411,2.522-0.768,5.437-1.403,8.34c0.801-0.599,2.452-13.88,3.889-13.386c0.284,0.095-0.888,5.517-1.183,6.19
	c-1.201,2.788,0.387,6.188-0.412,9.101c-0.084,0.282-0.486,1.764-0.502,2.056c-1.334,1.024,0.358,2.565,0.348,3.697
	c0,0.678,3.425,3.671,4.083,4.063c1.441,0.863,1.731-0.671,3.034-0.392c1.175,0.248,1.516,2.383,2.135,3.295
	c0.85,1.265,4.052,1.126,4.588,1.715c0.374,0.453,0.077,2.898,1.523,3.238c-0.013-0.161-0.031-1.039,0.164-1.157
	c0.453-0.269,1.38,1.352,1.07,1.656c-0.463,0.102-0.878-0.067-1.229-0.502c0,0.223-0.233,3.412,0.694,2.788
	c0.028-0.187,0.069-0.394,0.102-0.586c1.213,0.53,1.126,2.322,1.992,2.568c1.188,0.323,2.086,1.833,2.977,2.258
	c0.809,0.404,0.584-2.813,2.122-2.967c1.229-0.113,1.915,3.098,2.342,3.876c0.643,1.124-0.863,3.843-0.031,4.716
	c0.842,0.888-2.122,3.039-2.255,3.945c-0.1,0.689-1.605,1.334-1.551,1.595c0.115,0.763-0.333,1.777-0.604,2.491
	c-0.75,2.004-0.374,2.181,0.919,3.108c0.038,0.028-2.409,4.887-1.004,6.126c2.23,1.825,5.156,6.328,5.862,9.162
	c1.457,3.886,3.668,6.269,7.378,8.197c3.021,1.579,5.143,4.285,5.143,7.916c0.108,2.13-0.2,4.797,0.701,6.812
	c0.632,1.398-0.573,3.686,0.333,4.961c0.581,0.778-0.182,1.221,0.169,1.966c0.351,0.783,1.17,2.092,1.16,3.013
	c-0.028,1.528-0.01,3.338,0.1,4.856c0.02,0.517-0.451,1.4-0.195,1.72c0.356,0.425,2.404,5.491,2.404,6.971
	c-0.01,0.356,1.585-0.097,0.148-1.541c1.7-0.952,1.357,3.044,1.48,3.08c-1.539-0.512-0.548-0.1-0.425,1.866
	c0.074,1.16-0.305,0.596,0.645,0.822c1.51,0.338,0,1.344,0.566,2.158c1.142,1.636,2.877,3.146,4.065,4.408
	C227.535,337.377,230.858,337.06,233.162,337.546C233.485,337.603,232.732,337.454,233.162,337.546z M239.521,178.534
	c-0.54,0.474-1.124,0.568-1.736,0.745C238.218,178.637,238.874,178.739,239.521,178.534z M234.442,178.099
	c0.394-0.056,0.707,0.054,0.911,0.33c0.018,0.154-2.079,0.246-2.391,0.786C233.231,178.304,233.997,178.452,234.442,178.099
	C234.65,178.365,233.997,178.452,234.442,178.099z M229.327,181.704C229.773,181.821,228.692,181.612,229.327,181.704
	C229.353,181.711,229.215,181.688,229.327,181.704z M226.516,176.366c0.197-0.218,0.351-0.182,0.448,0.097
	C226.77,176.689,226.619,176.653,226.516,176.366C226.537,176.238,226.504,176.494,226.516,176.366z M223.736,184.701
	C222.948,184.648,224.566,184.73,223.736,184.701C223.629,184.696,223.846,184.709,223.736,184.701z M224.571,181.463
	c-2.724,2.55-0.612,0.036-1.398,0.822c0.013,0.044,0,0.077-0.044,0.084C222.915,182.124,224.509,181.478,224.571,181.463
	C224.215,181.801,224.095,181.548,224.571,181.463z M223.56,178.458c-0.484,0.576-0.484,0.576-1.172,0.443
	C222.753,178.662,223.222,178.744,223.56,178.458z M235.689,168.886c-0.174,0.008-0.343,0.008-0.625,0.008
	C235.942,168.161,235.773,168.886,235.689,168.886C235.515,168.893,235.812,168.886,235.689,168.886z M237.655,167.585
	c-0.302,0.335-0.722,0.133-1.103,0.302C236.946,167.13,237.02,167.112,237.655,167.585z M226.657,168.471
	c0.23-0.205,0.504-0.31,0.806-0.282C227.732,168.568,225.807,168.786,226.657,168.471
	C226.77,168.266,226.552,168.512,226.657,168.471z M226.166,167.923c0.315,0.141,0.279,0.282-0.09,0.433
	C225.815,168.205,225.851,168.064,226.166,167.923C226.278,167.923,226.02,167.939,226.166,167.923z M211.945,192.192
	c0.02-0.018-4.262,1.708-3.93,0.643c-0.11,0.343,1.464-1.208,1.134-1.057c0.351-0.159,3.223-0.328,4.052-0.32
	C212.759,191.887,212.352,192.044,211.945,192.192C210.982,192.545,212.352,192.044,211.945,192.192z M215.357,190.075
	c3.533,0.343-2.094,1.411-2.701,0.786C213.46,190.172,214.387,189.97,215.357,190.075
	C215.644,190.106,214.387,189.97,215.357,190.075z M214.781,168.113c0.942-0.599,1.956-1.055,3.19-1.334
	c-0.906,0.748-2.115,1.052-3.215,1.362L214.781,168.113z M214.979,187.195c-0.161,0.161-0.31,0.154-0.461-0.003
	C214.738,187.118,214.938,187.046,214.979,187.195C215.045,187.348,214.938,187.046,214.979,187.195z M213.932,189.312
	C213.857,189.312,213.588,189.238,213.932,189.312C213.957,189.312,213.827,189.284,213.932,189.312z M212.9,187.51
	c1.28,0.604,0.548,2.588-0.561,1.039c-0.036,0.919-1.651,2.486-2.514,2.675c0.33-0.366,0.451-0.773,0.346-1.208
	c-0.282-0.218-0.806,0.399-1.111,0.394c0.133,0.55,2.317-3.75,0.479-2.506c-0.673,0.512-5.092,5.212-5.34,4.951
	c-0.412-0.417,1.953-3.871,2.122-4.001C207.828,187.604,210.982,186.619,212.9,187.51z M210.437,171.098
	c0.182-0.105,1.595-0.968,1.774-0.765c0.463,0.568-2.268,1.265-2.409,1.277C209.969,171.269,210.235,171.223,210.437,171.098
	C210.934,170.821,210.235,171.223,210.437,171.098z M210.737,182.612c-0.008,0.074-0.556,1.142-0.914,0.719
	C209.556,183.037,210.644,182.124,210.737,182.612C210.685,182.897,210.708,182.49,210.737,182.612z M207.631,173.724
	c0.172,0,2.465-1.426,2.537-0.842C210.202,173.051,207.375,173.77,207.631,173.724z M207.007,176.092
	c-0.148,0.261-0.279,0.397-0.596,0.387C206.536,176.205,206.725,176.174,207.007,176.092z M205.412,181.612
	c0.323-0.238,1.065-1.441,0.699-1.91c0.192,0.253-1.377-0.177-0.65-0.445c0.284-0.095,2.086-1.075,2.368-0.776
	c0.52,0.53-2.235,3.42-2.78,3.663C205.089,181.85,205.261,181.719,205.412,181.612C205.862,181.268,205.261,181.719,205.412,181.612
	z M206.979,185.249c1.976-0.632,2.691-1.741,3.881-0.238c0.438,0.563,0.369,2.017-0.691,1.679c0.279,0.095-3.205-0.238-2.563-0.617
	c-0.701,0.435-2.061,0.74-2.88,0.379C205.484,186.022,206.164,185.523,206.979,185.249
	C207.465,185.098,206.164,185.523,206.979,185.249z M204.229,181.583c0.179,0.463,0.046,0.701-0.486,0.788
	C203.945,182.047,204.086,181.814,204.229,181.583z M176.218,224.164C175.324,224.136,176.919,224.136,176.218,224.164
	C176.115,224.159,176.31,224.159,176.218,224.164z M187.517,232.276C187.272,232.361,188.224,232.113,187.517,232.276
	C187.479,232.289,187.643,232.259,187.517,232.276z M215.104,241.393C214.623,241.316,215.66,241.441,215.104,241.393
	C215.058,241.393,215.176,241.398,215.104,241.393z M219.628,322.235C218.847,322.102,220.037,321.626,219.628,322.235
	C219.43,322.214,219.64,322.214,219.628,322.235z M221.622,281.795C221.34,281.513,221.791,281.958,221.622,281.795
	C221.599,281.766,221.678,281.838,221.622,281.795z M221.937,306.995C221.45,307.162,222.487,306.79,221.937,306.995
	C221.811,307.039,222.016,306.959,221.937,306.995z M224.599,334.147c-0.358-0.205-0.358-0.338-0.015-0.394
	C224.97,333.906,224.978,334.039,224.599,334.147C224.445,334.131,224.732,334.175,224.599,334.147z M228.119,335.677
	c-0.366-0.069-0.33-0.218,0.11-0.422C228.534,335.386,228.498,335.529,228.119,335.677
	C227.96,335.677,228.216,335.649,228.119,335.677z M220.667,325.647c-0.041,0.031-0.084,0.036-0.125,0.043
	C220.657,325.604,220.695,325.586,220.667,325.647z M229.404,163.292c0,0-0.008,0-0.02,0c0.013-0.003,0.013-0.013,0.02-0.013
	V163.292z M196.268,178.998c0,0.01-0.015,0.01-0.02,0.01L196.268,178.998z M197.189,178.227h-0.008H197.189z M351.956,238.505
	l0.008,0.008c-1.905-7.025-3.338-13.975-6.241-20.79c-3.466-8.09-8-15.711-13.494-22.577c-5.174-6.484-11.182-12.308-17.825-17.272
	c-3.238-2.419-6.602-4.628-10.12-6.63c-1.672-0.968-3.379-1.874-5.12-2.739c-0.753-0.358-3.415-1.062-3.807-1.7
	c0.02,0.292,1.546,1.06,1.751,1.272c-1.032-0.274-3.763-1.428-3.796-1.608c0.054-0.118,0.284,0,0.259-0.205
	c-1.544-0.983-7.306-3.103-8.458-1.531c0.253-0.317,3.971,3.994,4.068,4.754c0.246,1.679,2.865,3.453,4.539,4.004
	c2.324,0.773,0.584-0.274,1.562-0.814c0.632-0.317,1.213,1.06,1.812,0.75c-0.015-0.013,0-0.031,0.015-0.041
	c-0.169-0.323-0.346-0.64-0.535-0.963c-0.164,0,4.214,4.524,4.762,3.54c-0.512-1.224-1.298-2.614-2.547-3.766
	c-1.098-1.032-2.831-1.124-4.022-2.161c-0.602-0.522-2.821-2.153-3.067-2.903c2.941,0.1,6.331,6.321,9.285,3.912
	c-0.412-0.282-0.814-0.586-1.198-0.914c0.553,0.161,3.011,0.95,2.176,1.984c-2.348-0.407,1.997,1.976,2.061,2.237
	c-0.428-0.028-0.719-0.366-1.114-0.399c0.166,0.822,2.481,1.656,2.655,3.054c-1.398,0.218-0.796-0.845-1.7,0.279
	c-0.297,0.374-1.551,0.261-2.232,0.31c-1.613,0.133-3.407-2.614-4.588-3.448c0.492,1.528,1.334,2.26,3.046,3.328
	c0.829,0.474-1.172,0.681-1.139,1.37c0.059,0,0.538,0.246,0.522,0.374c0,0.09-0.451-0.312-0.522-0.374
	c0.159-0.108-0.276,2.691-0.312,2.647c1.321,1.539-1.779,1.088-1.841,1.144c0.246,0.348,0.727,0.532,0.85,1.039
	c-0.906,0.056-1.638-0.079-2.506,0.238c1.267,0.376,8.256,3.61,6.728,6.039c-0.489,0.791-5.228-0.197-6.103-0.23
	c-1.833-0.125-0.128,1.748-0.077,1.966c0.292,1.39,1.37,2.004,1.277,3.63c-0.087,1.152,1.091,1.185,1.462,2.156
	c0.315,0.842,0.123,0.919,1.011,1.047c1.559,0.192,1.595-0.044,2.913,0.983c0.929,0.732,1.295-0.681,2.404-0.722
	c2.78-0.12,0.407-0.678,1.736-1.055c1.651-0.461-0.451-3.034-0.353-3.533c0.118-0.676-0.105-1.434,0.806-1.692
	c1.403-0.374-0.384-1.833-0.484-2.22c-0.266-1.152,3.878,0.983,3.379-1.946c2.388,0.75,4.844,2.916,7.05,4.157
	c1.3,0.776,2.593,1.523,3.548,2.76c1.121,1.462-1.631,0.863-1.797,1.293c-0.169,0.456,2.414,1.628,2.842,1.608
	c0.056-0.264-0.312-1.761-0.353-2.017c-0.128-1.032-1.623-2.058-1.523-2.885c0.479,0.046,0.906,0.236,1.28,0.532
	c-1.395-1.728-3.661-1.897-5.256-3.159c-0.963-0.794-2.163-1.426-3.103-2.235c-0.008-0.008-1.687-2.156-0.52-1.748
	c1.866,0.653,3.894,2.534,5.798,3.533c1.51,0.791,1.882,1.272,2.985,2.563c0.445,0.504,2.77,3.203,3.282,3.295
	c-0.028-0.026,1.9,1.684,2.662,1.946c-0.34-0.778-0.648-1.766-1.039-2.383c-0.52-0.85-2.688-1.331-2.688-2.596
	c0.489,0.041,0.553-0.471,1.6-0.435c-0.563-0.02,0.689-0.829,0.609-0.709c-2.015-1.152-4.746-4.531-5.484-6.82
	c0.561,0.033,0.868,0.773,1.467,0.387c-0.192-0.387-0.246-0.794-0.192-1.216c0.159,0.182,2.071,1.825,1.684,2.145
	c-0.54-0.01-0.983-0.238-1.364-0.658c0.264,0.963,1.226,0.983,1.62,1.644c0.036-0.266-0.138-0.484,0.079-0.778
	c1.682,0.701,5.084,3.354,5.553,5.225c-0.742,0.069-2.15-1.482-2.629-1.103c-0.172,0.379-0.148,0.758,0.056,1.121
	c-0.212,0.013-0.407,0.054-0.602,0.164c0.266,0.212,0.415,0.492,0.456,0.829c-0.271,0.084-0.548,0.169-0.827,0.246
	c0.225,0.942,5.187,5.652,5.535,5.176c0.097-0.164-0.212-0.645-0.128-0.717c0.261-0.294,1.034,1.068,1.441,0.801
	c0.328-0.212-0.325-0.643,0.041-0.822c0.75-0.387,3.712,5.422,4.081,6.103c1.434,2.693,0.484,1.055-0.604,1.428
	c-0.166,0.276-0.279,0.558-0.307,0.888c-1.725-0.399-3.62-1.398-5.03-2.399c-2.23-1.615,0.724,4.385-0.576,3.635
	c-0.758-0.435-1.206-1.07-2.15-1.152c-1.357-0.131-1.736-1.59-2.99-2.01c-1.019-0.343-5.051-0.709-4.531-2.56
	c0.42-1.585-1.603-2.885-2.291-3.487c-0.34-0.317-4.81,0.266-5.542,0.484c-1.226,0.392-3.177,0.794-3.876,1.948
	c-1.185,2.138-3.917-0.686-5.023-0.236c-0.576,0.228-0.015,1.994-0.323,2.56c-0.435,0.84-1.536,0.896-1.805,1.894
	c-0.484,1.833,0.906,3.336,0.269,5.012c-0.509,1.341-3.09,1.915-3.118,3.013c-0.023,0.586-0.138,1.242-0.686,1.551
	c-1.178,0.678,0.036,2.22-0.701,2.993c-3.968,4.037,1.277,7.992,0.379,12.429c-0.515,2.506-0.809,3.028,0.271,5.184
	c0.253,0.54,0.061,4.444,2.045,2.872c0.246,2.268,3.172,2.739,3.692,4.9c0.622,2.565,3.139,3.689,5.084,5.225
	c0.791,0.612,1.459,1.408,2.368,1.866c1.597,0.822,2.68-0.443,4.219-0.873c1.388-0.397,2.826-0.253,4.137,0.366
	c0.75,0.351,6.336-3.61,7.864-2.854c1.109,0.55,1.167,1.907,1.674,2.877c0.735,1.37,2.281-0.428,3.305,0.036
	c1.833,0.822,2.388,7.529,0.827,8.765c-1.16,0.858,1.498,4.524,1.856,5.268c1.06,2.074,2.002,5.693,1.679,7.992
	c-0.261,1.866,0.238,4.815-0.814,6.454c-1.068,1.644-1.679,3.384-2.542,5.253c-2.204,4.774-0.092,10.196-1.987,15.171
	c-1.152,2.534-0.942,5.261-1.567,7.916c-0.407,1.713-2.486,4.183-1.677,5.97c1.249-1.121,3.105-0.978,4.513-1.679
	c2.875-1.426,4.26-4.754,6.351-6.979c1.121-1.175,1.833-2.657,2.483-4.106c0.632-1.372,1.907-2.26,2.504-3.615
	c1.467-3.405,2.803-6.799,4.285-10.204c3.082-7.355,3.594-14.408,4.68-22.285C353.503,254.758,353.516,246.828,351.956,238.505z
	 M344.591,219.128c-0.392-0.983-5.591-8.604-4.982-9.016c0.694-0.443,11.804,19.226,10.598,22.269
	C348.508,227.899,346.486,223.539,344.591,219.128C344.568,219.082,344.975,220.027,344.591,219.128z M349.353,253.934
	c-0.212-0.55,0.079-1.024,0.238-1.656C349.821,252.946,349.445,253.414,349.353,253.934z M348.782,257.024
	c-0.028-0.343-0.051-0.604,0.174-0.85C349.12,256.507,348.964,256.737,348.782,257.024z M346.924,282.268
	c-0.189,0.072-0.394,0.141-0.596,0.21c-0.353,0,0.66-0.492,0.714-0.52C346.977,282.13,346.977,282.194,346.924,282.268
	C346.788,282.486,346.977,282.194,346.924,282.268z M347.203,272.005c-0.01-0.919,0.028-0.968,0.97-1.564
	C347.983,271.099,347.318,271.398,347.203,272.005z M348.262,267.238c-0.018-1.715-0.069-3.722,0.294-5.381
	c0.069,2.898,0.225,5.832,0.128,8.742C348.229,269.99,348.262,267.976,348.262,267.238
	C348.255,266.614,348.262,267.827,348.262,267.238z M349.788,272.696c-0.028,1.562-0.248,5.816-1.28,7.032
	c0.1-2.632,1.068-5.036,1.119-7.654C349.852,272.33,349.788,272.517,349.788,272.696S349.788,272.517,349.788,272.696z
	 M351.002,256.763c-0.448,1.861-0.008,2.44-1.119,3.479c-0.008-1.388-0.52-4.04,0.911-4.859
	C350.976,255.831,351.145,256.205,351.002,256.763C350.82,257.523,351.145,256.205,351.002,256.763z M289.769,347.364
	c0.148,0.271-12.257,3.779-13.542,4.045c-5.156,1.088-10.388,1.764-15.67,2.022c-10.017,0.497-20.503-0.422-30.136-3.351
	c1.244,0.133,2.739,0.781,4.001,0.579c-1.198-0.74-2.685-0.486-3.761-1.428c4.014,0.66,7.857,0.351,11.543,0.827
	c-0.387-0.512-3.738-1.324-3.722-1.669c0.474-0.049,3.064-0.12,3.159-0.205c1.219-0.94-1.943-0.819-1.651-1.505
	c0.092-0.179,0.955,0.115,1.26-0.284c0.481-0.64,0-0.97,0.182-1.293c0.138-0.274,5.002-1.134,5.499-0.901
	c-0.563,0.338-1.224-0.056-0.975,0.886c-0.492-0.064-1.999-0.028-2.089,0.64c0.038-0.161,1.651,2.084,1.71,2.186
	c0.556,0.881,2.506,1.411,2.668,2.465c0.32,1.764,9.559,1.592,10.941,1.434c3.451-0.394,6.679-1.62,10.081-2.212
	c2.017-0.358,4.037-0.927,6.088-1.129c0.955-0.1,4.122-1.198,4.859-0.95C280.684,349.171,288.056,347.028,289.769,347.364
	C289.784,347.4,289.498,347.31,289.769,347.364z M345.966,293.509c0.387-0.998,0.709-2.03,1.195-3.005
	C346.849,291.548,346.406,292.521,345.966,293.509z M347.571,289.472c0.051-0.128,0.11-0.253,0.146-0.366
	C347.722,289.249,347.63,289.352,347.571,289.472z M240.883,161.756c-0.522-0.087-1.078-0.02-1.633-0.105
	c0.287-0.261,1.93-0.317,1.208-0.773c2.255-1.38,6.961-1.656,9.546-1.344c2.908,0.356,5.809-0.543,8.673-0.095
	c1.16,0.189,2.166,0.218,3.315,0.292c1.006,0.115-0.136,1.149,1.006,1.324c0.676,0.084,2.022,1.615,2.637,1.28
	c-0.028,1.068-0.502,0.325-0.164,1.321c0.077,0.225,1.277,0.901,1.224,0.983c-0.113,0.161-3.356-0.074-3.203-0.028
	c-0.253-0.046,0.049,0.507,0.261,0.422c0.637,0.164,2.043-0.051,2.755,0.013c-1.633,1.475-4.078,1.298-5.901,2.483
	c-1.106,0.727-2.783,0.663-3.999,1.098c0,1.249-0.947,2.775-1.769,4.052c-0.586,0.893-4.713-1.162-5.138-1.692
	c-0.896-1.075-2.952-3.914-0.719-4.803c2.696-1.06,0.005-0.182-0.788-0.768c0.65-0.909,1.362-0.602,2.396-0.451
	c-0.527-0.727-1.175-0.909-1.964-0.53c-0.264-0.781,1.114-1.475-0.095-2.304c-0.52-0.366-3.379,0.056-3.456-0.443
	c-0.182-1.242,3.476-0.584,4.114-1.6C246.459,159.506,243.533,162.163,240.883,161.756
	C240.361,161.669,241.364,161.83,240.883,161.756z M292.239,180.362c0.438-0.051-0.556-1.446-0.812-1.725
	c0.305,0.033,0.566,0.059,0.855-0.123c-0.218-0.64-3.077-2.284-3.267-2.156c-1.075,0.668-2.419-2.335-2.555-2.747
	c1.841-0.248,2.985,1.713,4.641,2.529c1.411,0.681,6.502,3.103,6.659,4.641c0.108,0.765-3.863,0.443-4.449,1.352
	c-0.451-1.121,0.996-1.106,0.952-1.464C294.213,180.411,292.442,180.339,292.239,180.362
	C292.127,180.383,292.849,180.27,292.239,180.362z M240.261,181.801c-0.269,0.192-3.732,3.461-3.638,3.771
	c0.069,0.294,3.576,0.092,4.178,0.428c-0.028,0.402-0.515,0.197-0.589,0.545c0.461,0,1.874-0.881,2.107-0.62
	c0.028,0.215-0.005,0.435-0.115,0.643c1.551,1.531,1.4-1.8,1.482-1.974c-1.085-0.151,0.248-1.687-1.605-1.027
	c0.123-0.049-1.984-0.64-1.879-0.504c-0.169-0.169,1.5-1.623,1.626-1.812C240.852,181.012,240.717,181.443,240.261,181.801
	C239.672,182.223,240.387,181.696,240.261,181.801z M243.661,185.403C243.807,185.539,243.42,185.539,243.661,185.403
	C243.684,185.431,243.625,185.426,243.661,185.403z M242.88,185.331c0.102-0.115,0.681-0.364,0.323-0.028
	C243.085,185.526,242.568,185.684,242.88,185.331C242.916,185.277,242.811,185.403,242.88,185.331z M240.435,181.348l0.02-0.005
	c0,0.005,0,0.02,0.01,0.038C240.458,181.361,240.458,181.361,240.435,181.348z M237.332,184.481c0.087,0,0.161,0,0.23,0.067
	C237.481,184.545,237.097,184.527,237.332,184.481C237.42,184.481,237.268,184.489,237.332,184.481z M203.474,225.17
	c-0.947,0.097,0.625-0.745,0.494-1.047c-0.648-1.487-5.076-1.82-5.478-2.995c0.192-0.079,0.32-0.212,0.381-0.404
	c-1.521-0.617-2.294,1.239-3.666,1.119c2.849-4.818,9.897,0.694,12.741,2.921C206.459,224.947,204.961,224.965,203.474,225.17
	C203.356,225.183,204.303,225.057,203.474,225.17z M207.16,227.738c-0.712-0.31,2.34-0.284,2.747-0.448
	c-0.596-0.927-0.056-1.434-1.229-1.792c1.07-1.3,4.621,0.22,5.742,0.709c-0.09,0.169-0.31,0.015-0.422,0.218
	c0.095,0.077,2.44,2.01,0.852,1.357c-1.72-0.73-2.675,0.294-3.889,0.975C210.002,227.392,208.433,228.342,207.16,227.738
	C207.022,227.681,207.45,227.873,207.16,227.738z M289.759,178.388c1.661,1.72-0.916,3.041-2.081,1.938
	c-0.566-0.589-0.225-1.971-1.546-2.378c0.348-0.108,0.704-0.22,1.052-0.348C286.282,175.483,289.334,177.948,289.759,178.388
	C290.125,178.783,289.641,178.253,289.759,178.388z M268.157,167.964c-0.1-0.343,2.388-0.189,2.796-0.269
	c0.66-0.108,5.609,0.381,3.873,1.183c-1.352,0.596-3.323,1.293-4.595,0.12C269.906,168.727,268.175,168.036,268.157,167.964
	C268.096,167.734,268.247,168.3,268.157,167.964z M313.324,192.481c0.576,0,1.984,2.22,1.751,2.578
	c-0.66,1.047-1.769-1.605-2.46-2.02C312.865,192.876,313.098,192.694,313.324,192.481z M236.124,162.437
	c1.692-1.277,2.079-0.548,4.178-0.335C239.636,162.708,238.021,162.839,236.124,162.437
	C236.595,162.084,238.021,162.839,236.124,162.437z M273.372,160.983c-1.254-0.343-2.56-0.397-3.763-0.878
	c1.444-0.161,3.197,0.394,4.206,0.681C274.148,160.901,273.277,160.957,273.372,160.983
	C272.118,160.64,273.48,161.009,273.372,160.983z M269.609,160.108c-0.133,0.02-0.271,0.028-0.407,0.046
	C269.338,160.023,269.478,160.008,269.609,160.108C269.478,160.128,269.555,160.092,269.609,160.108z M203.868,227.82
	c0.266,0.028,0.417,0.164,0.463,0.422c-0.169,0.707-2.36-0.292-2.596-0.602C202.499,227.2,203.192,227.456,203.868,227.82z
	 M219.571,227.761C218.412,230.605,215.491,225.779,219.571,227.761C219.395,228.175,218.883,227.43,219.571,227.761z
	 M224.105,241.559L224.105,241.559c0.028-0.079,0.102-0.113,0.207-0.118C224.253,241.48,224.184,241.503,224.105,241.559z
	 M224.509,241.48c-0.064-0.018,0.31-1.162,1.052-1.219C226.44,240.812,224.945,241.533,224.509,241.48
	C224.438,241.462,225.467,241.595,224.509,241.48z M233.743,161.83c-0.781,0.525-1.718,0.172-2.529,0.476
	C232.338,161.533,232.852,161.6,233.743,161.83C232.963,162.353,233.603,161.792,233.743,161.83z M204.426,219.026
	c-0.312-1.162-0.755-1.175,0.023-2.202C204.759,217.915,204.759,218.565,204.426,219.026
	C204.303,218.552,204.759,218.565,204.426,219.026z M183.276,259.369c-0.02,0.422-0.22,0.586-0.622,0.438
	c-0.143-0.125-0.212-1.533,0.038-1.828C182.889,258.437,183.094,258.89,183.276,259.369
	C183.347,259.561,183.094,258.89,183.276,259.369z M232.164,183.066c0.911-0.013,1.644,0.261,2.452,0.855
	C233.541,184.125,232.852,183.711,232.164,183.066z M312.957,192.082l0.015,0.013c-0.261-0.092-1.853-1.055-1.211-1.569
	C312.228,190.2,312.896,191.921,312.957,192.082z M329.334,200.225c-0.305-0.32-0.945-0.102-1.114-0.748
	c0.548,0.292,1.149,0.156,1.684,0.568C329.708,200.202,329.508,200.394,329.334,200.225
	C329.027,199.905,329.508,200.394,329.334,200.225z M235.116,162.368c-0.159-0.23-0.443-0.077-0.599-0.284
	c0.451-0.497,1.068-0.328,1.618-0.476C236.109,161.669,235.466,162.877,235.116,162.368
	C234.959,162.135,235.21,162.522,235.116,162.368z M232.389,162.972c-0.724,0.548-1.469,1.083-2.476,0.991
	C230.584,163.259,231.503,163.154,232.389,162.972z M232.128,187.123c0.197,0.044,0.407-0.013,0.722-0.041
	c-0.96,1.172-2.076-0.463-1.846-0.532C230.84,186.593,232.072,187.118,232.128,187.123
	C232.325,187.167,231.757,187.062,232.128,187.123z M232.535,163.443c0.666-0.54,1.459-0.64,2.284-0.566
	C234.117,163.287,233.372,163.517,232.535,163.443z M308.877,194.821c-0.781-0.108,1.434-0.806,0.632,0.205
	C309.284,195.003,309.064,194.941,308.877,194.821C308.744,194.801,309.11,194.834,308.877,194.821z M333.233,200.392
	c-0.471-0.228-0.645-0.532-0.512-1.078C333.11,199.598,333.276,199.898,333.233,200.392z M234.204,166.984
	c0.287-0.492,0.579-0.627,1.541-0.604C235.261,166.912,234.762,167.002,234.204,166.984z M227.162,170.255
	c-0.553,0.302-0.968,0.527-1.562,0.484C226.02,170.255,226.504,170.268,227.162,170.255z M285.716,174.28
	c-0.115,0.212-0.005,0.356,0.146,0.507c-0.166-0.077-0.85-0.927-0.328-1.062C285.775,173.837,285.842,174.013,285.716,174.28
	C285.601,174.49,285.796,174.152,285.716,174.28z M197.491,222.057c-0.031,0.34-0.197,0.499-0.502,0.492
	C196.831,222.262,197.335,221.453,197.491,222.057C197.532,222.246,197.448,221.932,197.491,222.057z M230.328,323.369
	c0.256,0.095,0.404,0.289,0.438,0.566C230.766,324.792,229.222,323.476,230.328,323.369
	C230.5,323.346,230.077,323.387,230.328,323.369z M228.119,170.76c-0.189,0.276-0.435,0.415-0.85,0.563
	C227.471,170.862,227.771,170.78,228.119,170.76z M183.99,259.218C183.908,260.201,183.703,258.276,183.99,259.218
	C183.982,259.343,183.956,259.11,183.99,259.218z M234.629,172.383c0.028-0.02,0.082,0.013,0.125,0.028
	C234.637,172.48,234.422,172.48,234.629,172.383z M230.275,163.077c-0.11,0.02-0.23,0.036-0.343,0.049
	C230.034,163.049,230.154,163.041,230.275,163.077z M229.888,163.146c-0.074,0,0.026-0.02,0.044-0.02
	C229.914,163.133,229.891,163.133,229.888,163.146z M229.407,163.277c0,0-0.003,0.01-0.003,0.013
	C229.396,163.277,229.404,163.277,229.407,163.277z M229.407,163.277c0.118-0.151,0.292-0.123,0.445-0.131
	C229.74,163.313,229.594,163.338,229.407,163.277z M232.515,163.443c0,0,0.018,0,0.02,0
	C232.532,163.448,232.515,163.464,232.515,163.443z M232.515,163.448c-0.036,0.182-0.177,0.156-0.294,0.156
	C232.269,163.448,232.381,163.436,232.515,163.448z M196.623,263.388C196.401,263.227,196.764,263.516,196.623,263.388
	C196.534,263.324,196.731,263.488,196.623,263.388z M300.956,171.098C301.553,171.269,300.989,171.231,300.956,171.098
	C300.956,171.098,300.982,171.203,300.956,171.098z M285.878,174.802c-0.008-0.003-0.008-0.018-0.015-0.018
	c0.059,0.013,0.077,0.056,0.059,0.125C285.914,174.881,285.891,174.84,285.878,174.802
	C285.87,174.799,285.891,174.84,285.878,174.802z M232.2,163.604c0.013,0,0.013,0,0.02,0c0,0.013-0.008,0.013-0.028,0.008
	C232.192,163.612,232.2,163.612,232.2,163.604z M232.013,163.645c0.059-0.02,0.123-0.02,0.179-0.036
	C232.113,163.74,232.044,163.748,232.013,163.645C232.072,163.625,232.015,163.661,232.013,163.645z M320.888,193.797v-0.008
	l0.013,0.015L320.888,193.797z M243.456,256.694C243.162,256.456,243.676,256.512,243.456,256.694
	C243.42,256.673,243.533,256.632,243.456,256.694z M289.838,347.343c-0.02,0.015-0.044,0.015-0.067,0.015
	c0.008-0.049,0.026-0.077,0.067-0.056C289.838,347.3,289.838,347.331,289.838,347.343z M289.769,347.364
	c-0.008-0.008-0.013-0.008,0-0.008V347.364z M211.84,187.628c0.046-0.013,0.952-0.108,0.64,0.243
	C212.127,188.047,211.922,187.96,211.84,187.628C211.945,187.612,211.845,187.83,211.84,187.628z M206.147,179.702
	c-0.256-0.177-0.2-0.351,0.159-0.54C206.618,179.269,206.564,179.456,206.147,179.702
	C206.024,179.684,206.346,179.633,206.147,179.702z"/>
<path style="fill:#03628A;" d="M296.924,167.432c22.431,16.883,36.933,43.712,36.933,73.94c0,51.072-41.411,92.467-92.493,92.467
	c-30.218,0-57.05-14.502-73.92-36.92c15.468,33.431,49.293,56.627,88.54,56.627c53.896,0,97.572-43.684,97.572-97.551
	C353.556,216.73,330.36,182.917,296.924,167.432z"/>
<path style="fill:#E1EFFA;" d="M333.233,200.392c-0.471-0.228-0.645-0.532-0.512-1.078
	C333.11,199.598,333.276,199.898,333.233,200.392z M233.162,337.546c-2.304-0.484-5.627-0.166-7.583-2.212
	c-0.957-1.014-2.263-2.197-3.333-3.482c2.324,0.484,4.69,0.87,7.081,1.19c-0.141,0.264-0.049,0.643,0.96,1.544
	c-3.361,0.115-0.018,1.917-0.018,1.93c-0.394-0.246-0.233-0.069,0.123-0.625c-0.256-0.174-0.824,0.156-0.986-0.21
	c-0.645-1.503,2.363,0.32,2.294,0.292c0.916,0.558,2.491,0.617,3.213,1.203c-0.3,0.082-1.318,0.438-1.731,0.374
	C233.075,337.526,232.891,337.498,233.162,337.546z M224.586,333.752c-0.343,0.056-0.343,0.189,0.015,0.394
	C224.978,334.039,224.97,333.906,224.586,333.752z M228.229,335.255c-0.443,0.205-0.479,0.353-0.11,0.422
	C228.498,335.529,228.534,335.386,228.229,335.255z M329.905,200.046c-0.535-0.415-1.137-0.276-1.684-0.568
	c0.166,0.645,0.806,0.428,1.114,0.748c-0.192-0.215-0.059-0.064,0.01,0C329.508,200.392,329.708,200.202,329.905,200.046z
	 M320.568,193.613c0.108,0.049,0.22,0.1,0.32,0.182c-0.128-0.148-0.282-0.23-0.415-0.366
	C320.504,193.498,320.527,193.544,320.568,193.613z M320.888,193.797l0.013,0.008l-0.013-0.015V193.797z M233.178,337.546
	c-0.003,0-0.01,0-0.018,0C233.277,337.567,233.236,337.551,233.178,337.546z M344.701,219.382c-0.051-0.118-0.12-0.266-0.11-0.253
	C344.625,219.22,344.668,219.295,344.701,219.382z M289.7,347.364c-1.805-0.289-9.027,1.784-9.485,0.154
	c-0.737-0.248-3.904,0.85-4.859,0.95c-2.051,0.202-4.07,0.773-6.088,1.129c-3.4,0.591-6.63,1.818-10.081,2.212
	c-1.382,0.161-10.621,0.333-10.941-1.434c-0.161-1.055-2.115-1.585-2.668-2.465c-0.059-0.1-1.672-2.348-1.71-2.186
	c0.092-0.668,1.597-0.704,2.089-0.64c-0.246-0.942,0.415-0.548,0.975-0.886c-0.499-0.236-5.363,0.625-5.499,0.901
	c-0.182,0.323,0.3,0.653-0.182,1.293c-0.305,0.399-1.17,0.105-1.26,0.284c-0.292,0.686,2.87,0.566,1.651,1.505
	c-0.095,0.085-2.685,0.159-3.159,0.205c-0.018,0.348,3.336,1.157,3.722,1.669c-3.686-0.479-7.529-0.166-11.543-0.827
	c1.075,0.94,2.563,0.689,3.761,1.428c-1.26,0.202-2.757-0.445-4.001-0.579c9.633,2.929,20.119,3.848,30.136,3.351
	c5.281-0.259,10.514-0.934,15.67-2.022c1.285-0.266,13.691-3.773,13.542-4.045C289.613,347.343,289.654,347.359,289.7,347.364z
	 M350.994,256.786c0-0.01,0-0.01,0.008-0.023C350.907,257.175,350.956,256.968,350.994,256.786z M348.838,226.806
	c0.507,1.728,0.978,3.441,1.418,5.176C350.362,230.981,349.788,229.097,348.838,226.806z M352.361,263.107
	c-1.085,7.877-1.597,14.93-4.68,22.285c-1.482,3.405-2.819,6.799-4.285,10.204c-0.594,1.354-1.869,2.243-2.504,3.615
	c-0.65,1.446-1.359,2.931-2.483,4.106c-2.092,2.222-3.476,5.553-6.351,6.979c-1.408,0.701-3.261,0.561-4.513,1.679
	c-0.806-1.787,1.27-4.257,1.677-5.97c0.625-2.655,0.415-5.381,1.567-7.916c1.894-4.972-0.218-10.396,1.987-15.171
	c0.863-1.866,1.475-3.61,2.542-5.253c1.052-1.641,0.556-4.588,0.814-6.454c0.323-2.299-0.62-5.921-1.679-7.992
	c-0.358-0.745-3.016-4.411-1.856-5.268c0.986-0.783,1.116-3.732,0.627-6.016c0.399-3.474,0.63-6.999,0.63-10.565
	c0-12.621-2.542-24.64-7.112-35.594c0.187,0.087,0.358,0.189,0.594,0.218c0.945,0.082,1.393,0.717,2.15,1.152
	c1.3,0.75-1.654-5.251,0.576-3.635c1.411,1.001,3.305,1.999,5.03,2.399c0.028-0.33,0.141-0.612,0.307-0.888
	c1.091-0.374,2.038,1.265,0.604-1.428c-0.369-0.681-3.331-6.49-4.081-6.103c-0.366,0.179,0.287,0.612-0.041,0.822
	c-0.407,0.266-1.183-1.096-1.441-0.801c-0.085,0.069,0.225,0.55,0.128,0.717c-0.348,0.479-5.309-4.234-5.535-5.176
	c0.279-0.077,0.556-0.161,0.827-0.246c-0.041-0.338-0.187-0.614-0.456-0.829c0.195-0.113,0.389-0.151,0.602-0.164
	c-0.205-0.364-0.23-0.742-0.056-1.121c0.481-0.379,1.887,1.172,2.629,1.103c-0.468-1.871-3.871-4.524-5.553-5.225
	c-0.218,0.294-0.046,0.512-0.079,0.778c-0.394-0.66-1.357-0.681-1.62-1.644c0.381,0.42,0.824,0.645,1.364,0.658
	c0.384-0.32-1.528-1.964-1.684-2.145c-0.054,0.422,0,0.829,0.192,1.216c-0.599,0.387-0.906-0.353-1.467-0.387
	c0.735,2.291,3.466,5.668,5.484,6.82c0.077-0.12-1.172,0.689-0.609,0.709c-1.047-0.036-1.111,0.479-1.6,0.435
	c0,1.265,2.168,1.746,2.688,2.596c0.392,0.617,0.699,1.605,1.039,2.383c-0.763-0.261-2.691-1.971-2.662-1.946
	c-0.512-0.092-2.836-2.788-3.282-3.295c-0.832-0.97-1.254-1.49-2.056-2.022c-4.652-7.091-10.26-13.499-16.635-19.064
	c-0.013-0.494-0.712-0.916-1.38-1.183c-1.044-0.886-2.127-1.743-3.215-2.58c0.689,0.243,1.334,0.448,1.656,0.607
	c1.741,0.863,3.448,1.769,5.12,2.739c3.517,2.002,6.881,4.211,10.12,6.63c6.643,4.964,12.652,10.788,17.825,17.272
	c5.494,6.866,10.028,14.487,13.494,22.577c1.28,3.011,2.243,6.039,3.113,9.08c-2.796-6.828-8.727-17.024-9.226-16.694
	c-0.607,0.415,4.59,8.033,4.982,9.016c0.223,0.52,0.179,0.428,0.11,0.253c1.874,4.326,3.835,8.604,5.504,13
	c0.044-0.092,0.036-0.266,0.049-0.399c0.558,2.173,1.116,4.347,1.71,6.531l-0.008-0.008
	C353.516,246.828,353.503,254.758,352.361,263.107z M349.353,253.934c0.092-0.52,0.471-0.991,0.238-1.656
	C349.432,252.91,349.14,253.384,349.353,253.934z M348.782,257.024c0.182-0.287,0.338-0.52,0.174-0.85
	C348.733,256.422,348.754,256.681,348.782,257.024z M347.041,281.958c-0.054,0.028-1.068,0.52-0.714,0.52
	c0.202-0.069,0.407-0.138,0.596-0.21c-0.136,0.218,0.054-0.072,0,0C346.977,282.194,346.977,282.13,347.041,281.958z
	 M348.173,270.441c-0.942,0.596-0.98,0.645-0.97,1.564C347.318,271.398,347.983,271.099,348.173,270.441z M348.262,267.238
	c0,0.737-0.033,2.752,0.422,3.361c0.097-2.911-0.056-5.844-0.128-8.742C348.193,263.516,348.244,265.523,348.262,267.238
	C348.255,266.614,348.262,267.827,348.262,267.238z M349.788,272.696c0-0.179,0.064-0.369-0.161-0.622
	c-0.051,2.619-1.016,5.023-1.119,7.654C349.54,278.515,349.76,274.26,349.788,272.696
	C349.788,272.878,349.788,272.517,349.788,272.696z M351.002,256.763c0.143-0.558-0.028-0.932-0.205-1.38
	c-1.434,0.822-0.919,3.471-0.911,4.859c1.111-1.024,0.676-1.62,1.111-3.456C351.03,256.632,351.058,256.507,351.002,256.763z
	 M289.838,347.343c0-0.013,0-0.044,0-0.044c-0.044-0.02-0.059,0.01-0.067,0.056C289.795,347.359,289.818,347.359,289.838,347.343z
	 M347.715,289.108c-0.036,0.113-0.095,0.238-0.146,0.366C347.63,289.352,347.722,289.249,347.715,289.108z M347.159,290.506
	c-0.484,0.975-0.806,2.007-1.196,3.005C346.406,292.521,346.849,291.548,347.159,290.506z"/>
<g>
</g>
<g>
</g>
<g>
</g>
<g>
</g>
<g>
</g>
<g>
</g>
<g>
</g>
<g>
</g>
<g>
</g>
<g>
</g>
<g>
</g>
<g>
</g>
<g>
</g>
<g>
</g>
<g>
</g>
</svg>
